<svg width="191" height="191" viewBox="0 0 191 191" fill="none" xmlns="http://www.w3.org/2000/svg">
<rect x="10" y="10" width="170.747" height="170.747" rx="40.1494" stroke="white" stroke-width="20"/>
<path d="M78.272 142.964C82.2949 142.964 85.5561 139.703 85.5561 135.68C85.5561 131.657 82.2949 128.396 78.272 128.396C74.2492 128.396 70.988 131.657 70.988 135.68C70.988 139.703 74.2492 142.964 78.272 142.964Z" fill="white" stroke="white" stroke-width="7" stroke-linecap="round" stroke-linejoin="round"/>
<path d="M119.896 142.964C123.919 142.964 127.18 139.703 127.18 135.68C127.18 131.657 123.919 128.396 119.896 128.396C115.873 128.396 112.612 131.657 112.612 135.68C112.612 139.703 115.873 142.964 119.896 142.964Z" fill="white" stroke="white" stroke-width="7" stroke-linecap="round" stroke-linejoin="round"/>
<path d="M48 51H63.136L73.2772 101.668C73.6232 103.41 74.5709 104.975 75.9545 106.089C77.3381 107.202 79.0693 107.794 80.8452 107.76H117.626C119.402 107.794 121.133 107.202 122.516 106.089C123.9 104.975 124.848 103.41 125.194 101.668L131.248 69.92H66.92" stroke="white" stroke-width="20" stroke-linecap="round" stroke-linejoin="round"/>
</svg>
